<svg xmlns="http://www.w3.org/2000/svg" viewBox="0 0 294 294" width="294" height="294">
  <rect width="294" height="294" fill="#000000"/>
  <path d="M50.38 143.75L50.38 143.75Q50.31 145.12 49.92 146.59Q49.52 148.07 48.94 149.26Q48.37 150.44 47.72 151.24Q47.07 152.03 46.50 152.03L46.50 152.03Q45.70 151.96 45.56 150.95L45.56 150.95Q45.56 150.73 45.74 150.26Q45.92 149.80 46.14 149.22Q46.35 148.64 46.53 148.07Q46.71 147.49 46.71 147.06L46.71 147.06Q46.71 146.05 46.24 145.37Q45.78 144.68 44.98 144.68L44.98 144.68Q42.10 144.68 40.59 148.28Q39.08 151.88 39.08 158.87L39.08 158.87Q39.08 159.59 39.15 159.73L39.15 159.73Q40.66 159.66 41.85 159.62Q43.04 159.59 44.19 159.59L44.19 159.59Q44.26 159.73 44.26 160.16L44.26 160.16Q44.26 160.81 43.98 161.10L43.98 161.10Q42.32 161.46 41.35 161.71Q40.38 161.96 39.87 162.18Q39.37 162.40 39.26 162.65Q39.15 162.90 39.15 163.33L39.15 163.33Q39.15 163.91 39.19 164.48Q39.22 165.06 39.22 165.92L39.22 165.92Q39.22 171.97 35.95 175.64Q32.67 179.32 26.84 179.89L26.84 179.89Q25.83 179.82 24.75 179.32Q23.67 178.81 22.70 178.02Q21.73 177.23 21.01 176.26Q20.29 175.28 20 174.28L20 174.28Q20 171.54 21.15 169.06Q22.30 166.57 24.28 164.66Q26.26 162.76 28.96 161.57Q31.66 160.38 34.83 160.16L34.83 160.16Q34.83 158.36 34.47 156.64Q34.11 154.91 33.72 153.29Q33.32 151.67 32.96 150.12Q32.60 148.57 32.60 147.06L32.60 147.06Q32.60 145.12 33.39 143.21Q34.18 141.30 35.48 139.68Q36.78 138.06 38.50 136.91Q40.23 135.76 42.10 135.32L42.10 135.32Q42.90 135.54 44.23 136.58Q45.56 137.63 46.86 138.92Q48.15 140.22 49.16 141.55Q50.17 142.88 50.38 143.75ZM26.62 176.58L26.62 176.58Q28.35 175.86 29.90 174.49Q31.45 173.12 32.60 171.40Q33.75 169.67 34.44 167.72Q35.12 165.78 35.12 163.91L35.12 163.91Q33.68 164.12 31.95 165.24Q30.22 166.36 28.71 167.90Q27.20 169.45 26.19 171.11Q25.18 172.76 25.18 173.99L25.18 173.99Q25.18 175.57 26.62 176.58ZM50.60 165.64L50.60 165.64Q50.60 163.04 51.93 158.44Q53.26 153.83 55.42 148.36Q57.58 142.88 60.32 137.05Q63.06 131.22 65.83 126.18Q68.60 121.14 71.16 117.47Q73.71 113.80 75.51 112.50L75.51 112.50Q76.52 112.57 77.71 113.36Q78.90 114.16 79.90 115.27Q80.91 116.39 81.60 117.61Q82.28 118.84 82.28 119.84L82.28 119.84Q79.04 122.44 75.69 126.50Q72.34 130.57 69.32 135.43Q66.30 140.29 63.74 145.73Q61.18 151.16 59.46 156.42L59.46 156.42Q61.76 152.46 64.28 149.22Q66.80 145.98 69.32 143.68Q71.84 141.37 74.25 140.11Q76.66 138.85 78.82 138.78L78.82 138.78Q81.99 141.08 81.99 144.90L81.99 144.90Q81.99 147.20 81.06 149.54Q80.12 151.88 78.57 153.86Q77.02 155.84 75.04 157.25Q73.06 158.65 70.90 159.08L70.90 159.08Q71.62 161.60 72.74 164.20Q73.86 166.79 75.40 169.24Q76.95 171.68 78.93 173.77Q80.91 175.86 83.43 177.30L83.43 177.30Q83.07 178.02 82.35 178.74Q81.63 179.46 80.62 180Q79.62 180.54 78.43 180.86Q77.24 181.19 76.09 181.19L76.09 181.19Q74.14 181.19 72.45 179.24Q70.76 177.30 69.39 173.63L69.39 173.63Q68.31 170.68 67.30 166.57Q66.30 162.47 65.50 158.00L65.50 158.00Q66.51 157.36 68.02 156.10Q69.54 154.84 71.19 153.18L71.19 153.18Q77.53 147.06 77.53 142.60L77.53 142.60Q77.53 142.02 76.74 142.02L76.74 142.02Q75.30 142.09 73.35 143.39Q71.41 144.68 69.21 146.99Q67.02 149.29 64.75 152.39Q62.48 155.48 60.39 159.08L60.39 159.08Q59.53 160.52 58.81 162.40Q58.09 164.27 57.55 166.25Q57.01 168.23 56.72 170.17Q56.43 172.12 56.43 173.77L56.43 173.77Q56.43 174.78 56.65 175.43L56.65 175.43Q54.42 175.21 53.91 174.28L53.91 174.28Q53.34 173.41 52.94 172.87Q52.54 172.33 52.11 171.97L52.11 171.97Q51.46 171.47 51.03 169.81Q50.60 168.16 50.60 165.64ZM86.31 167.58L86.31 167.58Q86.31 166.93 86.42 165.96Q86.53 164.99 86.82 163.37Q87.10 161.75 87.57 159.44Q88.04 157.14 88.76 153.90L88.76 153.90Q88.90 153.18 89.41 151.60Q89.91 150.01 90.74 148.25Q91.57 146.48 92.76 144.83Q93.94 143.17 95.60 142.38L95.60 142.38Q96.82 142.67 98.84 143.86Q100.86 145.04 102.30 147.13L102.30 147.13Q100.64 149.00 99.52 150.88Q98.41 152.75 97.51 154.76Q96.61 156.78 95.85 158.94Q95.10 161.10 94.16 163.48L94.16 163.48Q93.37 165.49 92.72 167.62Q92.07 169.74 92 171.32L92 171.32Q92 172.62 91.96 173.16Q91.93 173.70 91.57 173.70L91.57 173.70Q91.28 173.70 90.42 173.34Q89.55 172.98 88.65 172.22Q87.75 171.47 87.03 170.32Q86.31 169.16 86.31 167.58ZM100.06 136.33L100.06 136.33Q100.06 135.90 100.28 135.04L100.28 135.04Q99.92 134.68 99.67 133.96Q99.42 133.24 99.42 132.66L99.42 132.66Q99.42 132.01 99.60 130.90Q99.78 129.78 100.06 128.48Q100.35 127.19 100.78 125.78Q101.22 124.38 101.65 123.23L101.65 123.23Q102.51 123.23 103.77 123.70Q105.03 124.16 106.33 124.92Q107.62 125.68 108.70 126.58Q109.78 127.48 110.36 128.27L110.36 128.27Q109.57 129.06 108.27 130.46Q106.98 131.87 105.75 133.42Q104.53 134.96 103.52 136.33Q102.51 137.70 102.22 138.28L102.22 138.28Q101.36 138.13 100.71 137.52Q100.06 136.91 100.06 136.33ZM103.16 167.80L103.16 167.80Q103.16 164.63 104.67 158.90Q106.18 153.18 108.92 145.55L108.92 145.55Q113.38 133.38 117.31 125.28Q121.23 117.18 124.98 112.64L124.98 112.64Q125.84 112.79 127.10 113.36Q128.36 113.94 129.58 114.62Q130.81 115.31 131.78 116.03Q132.75 116.75 133.04 117.18L133.04 117.18Q127.42 123.80 123.18 131.44Q118.93 139.07 115.40 148.93L115.40 148.93Q112.38 157.43 110.79 164.23Q109.21 171.04 109.21 175.57L109.21 175.57Q109.21 176.80 109.21 177.08Q109.21 177.37 109.28 177.66L109.28 177.66Q108.27 177.52 107.55 177.16Q106.83 176.80 106.62 176.29L106.62 176.29Q106.47 175.93 105.82 175.25Q105.18 174.56 104.67 174.20L104.67 174.20Q104.02 173.77 103.59 171.94Q103.16 170.10 103.16 167.80ZM120.15 167.80L120.15 167.80Q120.15 164.63 121.66 158.90Q123.18 153.18 125.91 145.55L125.91 145.55Q130.38 133.38 134.30 125.28Q138.22 117.18 141.97 112.64L141.97 112.64Q142.83 112.79 144.09 113.36Q145.35 113.94 146.58 114.62Q147.80 115.31 148.77 116.03Q149.74 116.75 150.03 117.18L150.03 117.18Q144.42 123.80 140.17 131.44Q135.92 139.07 132.39 148.93L132.39 148.93Q129.37 157.43 127.78 164.23Q126.20 171.04 126.20 175.57L126.20 175.57Q126.20 176.80 126.20 177.08Q126.20 177.37 126.27 177.66L126.27 177.66Q125.26 177.52 124.54 177.16Q123.82 176.80 123.61 176.29L123.61 176.29Q123.46 175.93 122.82 175.25Q122.17 174.56 121.66 174.20L121.66 174.20Q121.02 173.77 120.58 171.94Q120.15 170.10 120.15 167.80ZM195.97 150.30L195.97 150.30Q194.82 150.37 193.16 151.78Q191.50 153.18 189.60 155.38Q187.69 157.57 185.64 160.24Q183.58 162.90 181.68 165.53Q179.77 168.16 178.11 170.46Q176.46 172.76 175.30 174.13L175.30 174.13Q173.72 173.48 172.57 172.22Q171.42 170.96 170.91 169.09L170.91 169.09Q171.27 166.86 171.92 164.45Q172.57 162.04 173.61 159.44Q174.66 156.85 176.20 154.01Q177.75 151.16 179.98 148.00L179.98 148.00Q178.90 148.07 177.03 149.54Q175.16 151.02 173 153.36Q170.84 155.70 168.54 158.62Q166.23 161.53 164.22 164.34L164.22 164.34Q161.55 168.08 159.79 170.89Q158.02 173.70 157.23 174.20L157.23 174.20Q155.36 172.84 154.64 171.25Q153.92 169.67 153.56 167.72L153.56 167.72Q153.63 166.00 154.10 163.40Q154.57 160.81 155.43 158.08L155.43 158.08Q157.09 152.82 159.72 147.64Q162.34 142.45 164.79 138.13L164.79 138.13Q166.81 138.56 168.43 139.50Q170.05 140.44 171.85 142.24L171.85 142.24Q171.13 144.47 169.62 146.95Q168.10 149.44 166.45 152.17Q164.79 154.91 163.42 157.79Q162.06 160.67 161.62 163.62L161.62 163.62Q163.64 160.74 166.41 157.00Q169.18 153.25 172.10 149.94Q175.02 146.63 177.90 144.32Q180.78 142.02 183.08 142.02L183.08 142.02Q183.94 142.02 184.95 142.31Q185.96 142.60 186.82 143.03Q187.69 143.46 188.26 143.86Q188.84 144.25 188.91 144.47L188.91 144.47Q188.55 145.91 187.22 148.39Q185.89 150.88 184.38 153.61Q182.86 156.35 181.57 158.90Q180.27 161.46 180.06 162.97L180.06 162.97Q183.58 158.15 186.68 154.22Q189.78 150.30 192.51 147.49Q195.25 144.68 197.59 143.17Q199.93 141.66 202.02 141.66L202.02 141.66Q203.46 141.66 204.72 142.42Q205.98 143.17 206.48 144.61L206.48 144.61Q205.83 146.77 204.36 149.80Q202.88 152.82 201.37 156.17Q199.86 159.52 198.67 162.76Q197.48 166.00 197.48 168.59L197.48 168.59Q197.48 170.10 197.91 170.57Q198.34 171.04 199.14 171.04L199.14 171.04Q200 171.04 200.76 170.71Q201.51 170.39 201.87 170.39L201.87 170.39Q202.30 170.68 202.38 171.11Q202.45 171.54 202.45 171.90L202.45 171.90Q201.01 173.05 199.50 173.81Q197.98 174.56 196.11 174.56L196.11 174.56Q194.38 174.56 193.27 173.99Q192.15 173.41 191.43 172.40Q190.71 171.40 190.42 170.10Q190.14 168.80 190.14 167.29L190.14 167.29Q190.14 164.84 190.78 162.43Q191.43 160.02 192.33 157.82Q193.23 155.63 194.24 153.72Q195.25 151.81 195.97 150.30ZM209.50 167.58L209.50 167.58Q209.50 166.93 209.61 165.96Q209.72 164.99 210.01 163.37Q210.30 161.75 210.76 159.44Q211.23 157.14 211.95 153.90L211.95 153.90Q212.10 153.18 212.60 151.60Q213.10 150.01 213.93 148.25Q214.76 146.48 215.95 144.83Q217.14 143.17 218.79 142.38L218.79 142.38Q220.02 142.67 222.03 143.86Q224.05 145.04 225.49 147.13L225.49 147.13Q223.83 149.00 222.72 150.88Q221.60 152.75 220.70 154.76Q219.80 156.78 219.04 158.94Q218.29 161.10 217.35 163.48L217.35 163.48Q216.56 165.49 215.91 167.62Q215.26 169.74 215.19 171.32L215.19 171.32Q215.19 172.62 215.16 173.16Q215.12 173.70 214.76 173.70L214.76 173.70Q214.47 173.70 213.61 173.34Q212.74 172.98 211.84 172.22Q210.94 171.47 210.22 170.32Q209.50 169.16 209.50 167.58ZM223.26 136.33L223.26 136.33Q223.26 135.90 223.47 135.04L223.47 135.04Q223.11 134.68 222.86 133.96Q222.61 133.24 222.61 132.66L222.61 132.66Q222.61 132.01 222.79 130.90Q222.97 129.78 223.26 128.48Q223.54 127.19 223.98 125.78Q224.41 124.38 224.84 123.23L224.84 123.23Q225.70 123.23 226.96 123.70Q228.22 124.16 229.52 124.92Q230.82 125.68 231.90 126.58Q232.98 127.48 233.55 128.27L233.55 128.27Q232.76 129.06 231.46 130.46Q230.17 131.87 228.94 133.42Q227.72 134.96 226.71 136.33Q225.70 137.70 225.42 138.28L225.42 138.28Q224.55 138.13 223.90 137.52Q223.26 136.91 223.26 136.33ZM226.35 167.80L226.35 167.80Q226.35 164.63 227.86 158.90Q229.38 153.18 232.11 145.55L232.11 145.55Q236.58 133.38 240.50 125.28Q244.42 117.18 248.17 112.64L248.17 112.64Q249.03 112.79 250.29 113.36Q251.55 113.94 252.78 114.62Q254 115.31 254.97 116.03Q255.94 116.75 256.23 117.18L256.23 117.18Q250.62 123.80 246.37 131.44Q242.12 139.07 238.59 148.93L238.59 148.93Q235.57 157.43 233.98 164.23Q232.40 171.04 232.40 175.57L232.40 175.57Q232.40 176.80 232.40 177.08Q232.40 177.37 232.47 177.66L232.47 177.66Q231.46 177.52 230.74 177.16Q230.02 176.80 229.81 176.29L229.81 176.29Q229.66 175.93 229.02 175.25Q228.37 174.56 227.86 174.20L227.86 174.20Q227.22 173.77 226.78 171.94Q226.35 170.10 226.35 167.80ZM243.34 167.80L243.34 167.80Q243.34 164.63 244.86 158.90Q246.37 153.18 249.10 145.55L249.10 145.55Q253.57 133.38 257.49 125.28Q261.42 117.18 265.16 112.64L265.16 112.64Q266.02 112.79 267.28 113.36Q268.54 113.94 269.77 114.62Q270.99 115.31 271.96 116.03Q272.94 116.75 273.22 117.18L273.22 117.18Q267.61 123.80 263.36 131.44Q259.11 139.07 255.58 148.93L255.58 148.93Q252.56 157.43 250.98 164.23Q249.39 171.04 249.39 175.57L249.39 175.57Q249.39 176.80 249.39 177.08Q249.39 177.37 249.46 177.66L249.46 177.66Q248.46 177.52 247.74 177.16Q247.02 176.80 246.80 176.29L246.80 176.29Q246.66 175.93 246.01 175.25Q245.36 174.56 244.86 174.20L244.86 174.20Q244.21 173.77 243.78 171.94Q243.34 170.10 243.34 167.80Z" fill="#ffffff"/>
</svg>