<svg xmlns="http://www.w3.org/2000/svg" viewBox="0 0 341 341" width="341" height="341">
  <rect width="341" height="341" fill="#000000"/>
  <path d="M58.04 184.24L58.04 184.24Q58.04 186.59 57.44 188.47Q56.84 190.36 55.86 191.78Q54.88 193.20 53.57 194.21Q52.27 195.21 50.85 195.84Q49.43 196.47 47.97 196.77Q46.51 197.07 45.21 197.07L45.21 197.07L20.46 197.07L20.46 187.93L45.14 187.93Q47 187.93 47.95 186.98Q48.90 186.03 48.90 184.24L48.90 184.24Q48.72 180.58 45.21 180.58L45.21 180.58L31.04 180.58Q28.02 180.58 25.91 179.53Q23.80 178.47 22.48 176.89Q21.16 175.31 20.58 173.48Q20 171.65 20 170.07L20 170.07Q20 167.01 21.09 164.92Q22.18 162.83 23.83 161.53Q25.48 160.23 27.42 159.65Q29.35 159.07 31.04 159.07L31.04 159.07L53.50 159.07L53.50 168.21L31.11 168.21Q30.41 168.21 30.00 168.37Q29.60 168.52 29.40 168.79Q29.21 169.05 29.18 169.35Q29.14 169.65 29.14 169.93L29.14 169.93Q29.18 170.49 29.35 170.81Q29.53 171.13 29.79 171.27Q30.05 171.41 30.39 171.42Q30.72 171.44 31.04 171.44L31.04 171.44L45.21 171.44Q48.72 171.44 51.18 172.71Q53.64 173.97 55.16 175.89Q56.67 177.80 57.35 180.05Q58.04 182.30 58.04 184.24ZM87.57 176.33L109.09 197.07L95.90 197.07L77.48 179.28Q75.93 177.88 76.04 175.77L76.04 175.77Q76.11 174.78 76.55 173.92Q76.99 173.06 77.76 172.46L77.76 172.46L94.46 159.00L109.09 159.00L87.57 176.33ZM73.72 143L73.72 197.07L64.58 197.07L64.58 143L73.72 143ZM123.50 143L123.50 151.26L114.36 151.26L114.36 143L123.50 143ZM123.50 159.07L123.50 197.07L114.36 197.07L114.36 159.07L123.50 159.07ZM148.95 187.93L148.95 197.07L144.88 197.07Q142.91 197.07 140.67 196.40Q138.44 195.73 136.51 194.21Q134.57 192.68 133.31 190.23Q132.04 187.79 132.04 184.24L132.04 184.24L132.04 143L141.18 143L141.18 184.24Q141.18 185.93 142.24 186.93Q143.29 187.93 144.88 187.93L144.88 187.93L148.95 187.93ZM171.52 187.93L171.52 197.07L167.45 197.07Q165.48 197.07 163.24 196.40Q161.01 195.73 159.08 194.21Q157.14 192.68 155.88 190.23Q154.61 187.79 154.61 184.24L154.61 184.24L154.61 143L163.75 143L163.75 184.24Q163.75 185.93 164.81 186.93Q165.86 187.93 167.45 187.93L167.45 187.93L171.52 187.93ZM234.28 171.86L234.28 197.07L225.14 197.07L225.14 171.86Q225.14 170.07 224.19 169.14Q223.24 168.21 221.38 168.21L221.38 168.21L209.49 168.21L209.49 197.07L200.35 197.07L200.35 163.60Q200.35 162.65 200.70 161.83Q201.05 161 201.69 160.38Q202.32 159.77 203.16 159.42Q204.01 159.07 204.96 159.07L204.96 159.07L221.45 159.07Q223.34 159.07 225.52 159.73Q227.70 160.40 229.67 161.88L229.67 161.88L229.67 159.07L242.05 159.07Q243.35 159.07 244.79 159.37Q246.23 159.66 247.65 160.30Q249.08 160.93 250.38 161.93Q251.68 162.93 252.66 164.36Q253.65 165.78 254.25 167.64Q254.84 169.51 254.84 171.86L254.84 171.86L254.84 197.07L245.70 197.07L245.70 171.86Q245.70 170.07 244.81 169.14Q243.91 168.21 242.05 168.21L242.05 168.21L233.82 168.21Q234.28 169.89 234.28 171.86L234.28 171.86ZM272.53 143L272.53 151.26L263.39 151.26L263.39 143L272.53 143ZM272.53 159.07L272.53 197.07L263.39 197.07L263.39 159.07L272.53 159.07ZM297.98 187.93L297.98 197.07L293.90 197.07Q291.93 197.07 289.70 196.40Q287.47 195.73 285.54 194.21Q283.60 192.68 282.34 190.23Q281.07 187.79 281.07 184.24L281.07 184.24L281.07 143L290.21 143L290.21 184.24Q290.21 185.93 291.27 186.93Q292.32 187.93 293.90 187.93L293.90 187.93L297.98 187.93ZM320.55 187.93L320.55 197.07L316.47 197.07Q314.50 197.07 312.27 196.40Q310.04 195.73 308.11 194.21Q306.17 192.68 304.91 190.23Q303.64 187.79 303.64 184.24L303.64 184.24L303.64 143L312.78 143L312.78 184.24Q312.78 185.93 313.84 186.93Q314.89 187.93 316.47 187.93L316.47 187.93L320.55 187.93Z" fill="#ffffff"/>
</svg>